<svg xmlns="http://www.w3.org/2000/svg" viewBox="0 0 512 512"><title>Heart_Blank</title><g id="Heart_Blank" data-name="Heart Blank"><g id="Heart_Blank-2" data-name="Heart Blank"><path d="M274.7651,205.2432l-11.8837,11.8917a9.4839,9.4839,0,0,1-8.7,2.5487,9.17,9.17,0,0,1-5.0625-2.5577l-11.8835-11.8827a40.8452,40.8452,0,0,0-57.691,0c-15.5655,15.5745-15.425,40.5351.343,58.0607,16.0748,17.8678,60.2486,54.6939,76.113,67.7638,15.8642-13.07,60.047-49.9041,76.122-67.7638,15.768-17.5256,15.9083-42.4862.3428-58.0607A40.8616,40.8616,0,0,0,274.7651,205.2432Z"/><path d="M256,73.8206a182.1794,182.1794,0,1,0,0,364.3588c100.6082,0,182.18-81.5706,182.18-182.179S356.6083,73.8206,256,73.8206Zm90.1673,202.1221c-20.62,22.913-81.4311,72.413-84.015,74.5047A9.0538,9.0538,0,0,1,256,352.557a1.7643,1.7643,0,0,1-.2026.0081,9.4078,9.4078,0,0,1-5.9589-2.1177c-2.5839-2.0917-63.3861-51.5917-84.006-74.4967-22.5963-25.1271-22.4559-61.2764.3429-84.0671a59.7579,59.7579,0,0,1,84.4281,0L256,197.28l5.4053-5.4046a59.77,59.77,0,0,1,84.4191,0C368.6233,214.6743,368.7727,250.8236,346.1674,275.9427Z"/></g></g></svg>